<svg xmlns="http://www.w3.org/2000/svg" width="778.427" height="219.689" viewBox="0 0 778.427 219.689">
  <g id="logo-light" transform="translate(-207.622 -508)">
    <g id="グループ_8" data-name="グループ 8">
      <path id="パス_33" data-name="パス 33" d="M0,307.127,53.78,346.2l3.029-9.324L28.694,316.45H63.446l3.029-9.324Z" transform="translate(207.622 284.576)" fill="#ffe100"/>
      <path id="パス_34" data-name="パス 34" d="M230.327,0,158.685,219.689,345.855,83.7H278.694l3.03,9.324,35.366.069L177.182,194.477l53.147-164.3,26.144,80.46,7.932-5.764Z" transform="translate(92.184 508)"/>
      <path id="パス_35" data-name="パス 35" d="M518.386,571.868l-7.94,5.744,10.765,33.131-28.219-20.5-7.947,5.75,53.9,39.16Z" transform="translate(-145.232 91.987)" fill="#ffe100"/>
    </g>
    <g id="グループ_6" data-name="グループ 6" transform="translate(0 -8.021)">
      <path id="パス_37" data-name="パス 37" d="M66.976-.546a90.479,90.479,0,0,1-4.823-10.465L41.769-61.243c-2.275-5.551-2.73-6.734-3.094-8.463H29.484a51.808,51.808,0,0,1-2.912,8.463L6.188-11.011C3.731-4.914,3.094-3.549,1.274-.546h9.464a50.88,50.88,0,0,1,2.821-9.282l4.732-11.739H50.05L54.782-9.828A65.326,65.326,0,0,1,57.6-.546Zm-19.11-27.3H20.475l11.648-30.03c.182-.364.455-1.365,1-2.821.182-.637.546-1.638,1-3,1.729,5.005,1.729,5.1,2,5.824ZM75.985-11.1A64,64,0,0,1,75.257-.273c3.185-.182,5.642-.273,10.01-.273h15.379c9.1,0,16.653-2.73,22.113-8.1,6.279-6.1,9.737-15.561,9.737-26.936,0-21.749-11.557-34.125-31.85-34.125H85.267c-4.368,0-6.825-.091-10.01-.273a65.526,65.526,0,0,1,.728,10.38Zm7.1,4.186v-56.42H100.83c7.462,0,13.1,2,17.108,6.188,4.823,4.823,7.189,12.1,7.189,21.567,0,9.373-2.639,17.108-7.644,22.2-4.1,4.368-9.828,6.461-17.017,6.461ZM143.6-69.706v8.1h8.827v-8.1Zm.273,20.111a66.732,66.732,0,0,1,.637,10.283v28.483a78.967,78.967,0,0,1-.637,10.283h8.19a71.649,71.649,0,0,1-.637-10.283V-39.312a65.181,65.181,0,0,1,.637-10.283ZM162.71-13.832c.91,3.731,1.547,5.278,2.912,7.189C168.989-2,175.359.457,183.64.457c12.467,0,20.2-5.642,20.2-14.742a12.013,12.013,0,0,0-4.368-9.464c-2.73-2.093-5.642-3.185-14.469-5.187-5.642-1.183-8.008-1.911-10.1-3.094a5.592,5.592,0,0,1-3.094-5c0-4.823,4.732-8.19,11.375-8.19,4.1,0,7.371,1.183,9.464,3.458,1.274,1.274,1.729,2.366,2.275,4.823l7.189-1.183c-1.183-4.186-2.457-6.279-4.823-8.281-3.276-2.912-8.1-4.368-14.287-4.368-6.1,0-11.011,1.638-14.2,4.732a12.171,12.171,0,0,0-3.913,8.827,11.186,11.186,0,0,0,4.914,9.555c3.094,2.093,6.188,3.185,13.468,4.732,6.734,1.365,8.554,1.911,10.738,3.276a6.143,6.143,0,0,1,2.821,5.642c0,5.369-5.005,8.736-12.922,8.736-4.641,0-8.281-1.092-10.556-3.185-1.82-1.638-2.548-3.276-3.185-6.643Zm51.415-55.874v8.1h8.827v-8.1ZM214.4-49.6a66.732,66.732,0,0,1,.637,10.283v28.483A78.966,78.966,0,0,1,214.4-.546h8.19a71.651,71.651,0,0,1-.637-10.283V-39.312a65.185,65.185,0,0,1,.637-10.283ZM235.69,9.919c6.006,6.552,11.648,9.1,20.657,9.1,8.281,0,15.106-2.457,18.928-6.916,3.64-4.277,5.278-10.01,5.278-18.928V-39.4a69.5,69.5,0,0,1,.637-10.2h-7.28v5.187c0,1.183.091,1.911.182,3.458q-5.6-9.555-17.472-9.555c-14.1,0-23.023,9.828-23.023,25.3,0,15.2,8.736,24.752,22.477,24.752,5.551,0,10.647-1.638,14.1-4.732a16.515,16.515,0,0,0,3.913-5.005c-.364,7.553-.728,10.829-1.638,13.468-2.366,6.552-7.917,10.01-15.834,10.01a17.4,17.4,0,0,1-12.194-4.277,12.788,12.788,0,0,1-2.912-3.185Zm5-35.126c0-12.1,6.188-19.565,16.289-19.565,10.192,0,16.744,7.371,16.744,18.837,0,11.83-6.916,19.747-17.29,19.747-9.733,0-15.738-7.189-15.738-19.019ZM302.39-.546a73.38,73.38,0,0,1-.637-10.283V-28.392a19.491,19.491,0,0,1,4.186-9.009c3.822-4.914,7.917-7.189,13.013-7.189,7.189,0,11.1,4.368,11.1,12.558v21.2A73.389,73.389,0,0,1,329.42-.546h8.19a61.726,61.726,0,0,1-.637-10.192V-33.215c0-4.459-.819-7.826-2.548-10.465-2.912-4.459-8.008-6.825-14.56-6.825-8.19,0-14.1,3.549-18.382,11.011a24.386,24.386,0,0,0,.273-3.913V-49.6H294.2a61.471,61.471,0,0,1,.728,10.283v28.483A58.058,58.058,0,0,1,294.2-.546Zm80.444,0h7.371a58.187,58.187,0,0,1-.728-10.01V-36.127c0-9.828-6.188-14.924-18.2-14.924-6.825,0-12.285,1.729-16.016,5.187-2.275,2-3.458,3.913-5.1,8.1l7.1,1.547a12.789,12.789,0,0,1,2.821-5.278c2.548-2.639,6.279-3.913,11.284-3.913,7.553,0,11.466,3.185,11.466,9.373v5.278c-11.193.273-15.561.819-20.93,2.366-8.463,2.366-13.013,7.644-13.013,14.924,0,8.645,6.1,13.832,16.107,13.832a26.86,26.86,0,0,0,9.464-1.82c3.094-1.183,4.823-2.366,8.372-5.551Zm0-18.928c0,3.64-.728,5.551-2.821,7.826a20.573,20.573,0,0,1-14.56,6.461c-5.915,0-9.646-3.185-9.646-8.19,0-4.368,2.275-7.462,6.916-9.373,4.1-1.729,9.282-2.366,20.111-2.639Zm19.75,29.393c6.006,6.552,11.648,9.1,20.657,9.1,8.281,0,15.106-2.457,18.928-6.916,3.64-4.277,5.278-10.01,5.278-18.928V-39.4a69.5,69.5,0,0,1,.637-10.192H440.8v5.187c0,1.183.091,1.911.182,3.458q-5.6-9.555-17.472-9.555c-14.1,0-23.023,9.828-23.023,25.3,0,15.2,8.736,24.752,22.477,24.752,5.551,0,10.647-1.638,14.105-4.732a16.515,16.515,0,0,0,3.913-5.005c-.364,7.553-.728,10.829-1.638,13.468-2.366,6.552-7.917,10.01-15.834,10.01a17.4,17.4,0,0,1-12.19-4.282,12.789,12.789,0,0,1-2.912-3.185Zm5.005-35.126c0-12.1,6.188-19.565,16.289-19.565,10.192,0,16.744,7.371,16.744,18.837,0,11.83-6.916,19.747-17.29,19.747-9.732,0-15.743-7.189-15.743-19.019Zm96.46,1.183c-.182-2.457-.546-6.006-.637-7.007-1.82-12.194-10.283-19.747-22.022-19.747-13.65,0-22.568,10.192-22.568,25.753,0,15.743,9.009,25.753,23.3,25.753a22.725,22.725,0,0,0,16.471-6.37,21.757,21.757,0,0,0,5.005-7.553l-6.37-2.548C494.676-8.736,489.58-5.1,482.209-5.1a15.224,15.224,0,0,1-12.831-6.188c-2.457-3.276-3.367-6.643-3.64-12.74Zm-38.038-5.733a19.039,19.039,0,0,1,2.275-7.371,14.245,14.245,0,0,1,12.922-7.917,14.761,14.761,0,0,1,10.738,4.1c2.912,2.821,4.277,6.1,4.823,11.193Z" transform="translate(482 648)"/>
      <path id="パス_36" data-name="パス 36" d="M6.156-.216a21.953,21.953,0,0,1-.288-4.068v-7.092H13.9c5.616,0,8.856-3.06,8.856-8.352,0-5-3.132-7.848-8.676-7.848H6.732c-1.656,0-2.664-.036-3.96-.108a26.532,26.532,0,0,1,.288,4.1V-4.248A22.288,22.288,0,0,1,2.772-.216ZM5.868-13.86V-25.092H13.9c3.888,0,5.976,1.908,5.976,5.508,0,3.672-2.16,5.724-5.976,5.724Zm32.976-5.76a16.531,16.531,0,0,0-3.2-.324,7.176,7.176,0,0,0-4.32,1.26,6.312,6.312,0,0,0-1.98,2.2,10.469,10.469,0,0,0,.036-1.08V-19.62H26.388a26.091,26.091,0,0,1,.252,4.068V-4.284a32.877,32.877,0,0,1-.253,4.075l3.241-.007a28.165,28.165,0,0,1-.252-4.032v-7.344a5.926,5.926,0,0,1,1.332-3.6,5.313,5.313,0,0,1,4.428-2.2,8.539,8.539,0,0,1,2.916.54ZM50.616.252c5.8,0,9.54-4.032,9.54-10.188,0-6.192-3.708-10.152-9.576-10.152S40.968-16.128,40.968-9.9,44.712.252,50.616.252Zm.036-18.072c4.14,0,6.732,3.024,6.732,7.884s-2.592,7.848-6.8,7.848-6.84-2.988-6.84-7.884C43.74-14.832,46.368-17.82,50.652-17.82ZM79.6-.216h2.88a28.05,28.05,0,0,1-.252-4.14V-23.508a29.389,29.389,0,0,1,.252-4.068H79.308a28.19,28.19,0,0,1,.252,4.1v4.824a10.893,10.893,0,0,0,.108,1.908l.036.54a8.264,8.264,0,0,0-7.38-3.816c-5.4,0-8.856,3.924-8.856,10.08C63.468-3.676,66.852.14,72.4.14a8.028,8.028,0,0,0,7.3-3.884,15.929,15.929,0,0,0-.1,1.764Zm-6.984-17.46a6.945,6.945,0,0,1,4.9,1.908,7.962,7.962,0,0,1,2.016,5.724c0,4.752-2.7,7.812-6.912,7.812A5.949,5.949,0,0,1,67.8-4.392a9.414,9.414,0,0,1-1.476-5.616c-.008-4.792,2.368-7.668,6.292-7.668Zm29.16,17.46h2.988a24.317,24.317,0,0,1-.288-4.068V-15.552a27.027,27.027,0,0,1,.252-4.068h-3.2a28.009,28.009,0,0,1,.252,4.068V-8.6A8.408,8.408,0,0,1,100.116-5a6.192,6.192,0,0,1-5.184,2.84c-2.808,0-4.356-1.8-4.356-5v-8.388a27.677,27.677,0,0,1,.252-4.068h-3.24a25.9,25.9,0,0,1,.252,4.032V-6.7a7.871,7.871,0,0,0,1.008,4.18A6.56,6.56,0,0,0,94.608.144c3.24,0,5.472-1.332,7.272-4.284a11.059,11.059,0,0,0-.108,1.584Zm24.516-14.292a9.726,9.726,0,0,0-1.26-2.3,8.159,8.159,0,0,0-6.948-3.312c-5.508,0-9.108,4.068-9.108,10.3,0,6.156,3.636,10.08,9.288,10.08a8.291,8.291,0,0,0,6.8-3.024,9.872,9.872,0,0,0,1.476-2.772l-2.7-.72a5.848,5.848,0,0,1-.792,1.836,5.321,5.321,0,0,1-4.68,2.3c-4.032,0-6.624-3.024-6.624-7.776,0-4.824,2.52-7.92,6.48-7.92,2.664,0,4.392,1.332,5.436,4.14Zm21.384,5c-.072-.972-.216-2.376-.252-2.772-.72-4.824-4.068-7.812-8.712-7.812-5.4,0-8.928,4.032-8.928,10.188,0,6.232,3.56,10.192,9.216,10.192a8.99,8.99,0,0,0,6.516-2.52A8.607,8.607,0,0,0,147.5-5.22l-2.52-1.008a5.884,5.884,0,0,1-5.94,4.212,6.023,6.023,0,0,1-5.076-2.448c-.972-1.3-1.332-2.628-1.44-5.04Zm-15.048-2.268a7.532,7.532,0,0,1,.9-2.916,5.635,5.635,0,0,1,5.112-3.132,5.84,5.84,0,0,1,4.248,1.62,6.572,6.572,0,0,1,1.908,4.428ZM167.076-.216h2.88a28.051,28.051,0,0,1-.252-4.14V-23.508a29.38,29.38,0,0,1,.252-4.068h-3.168a28.193,28.193,0,0,1,.252,4.1v4.824a10.891,10.891,0,0,0,.108,1.908l.036.54a8.264,8.264,0,0,0-7.38-3.816c-5.4,0-8.856,3.924-8.856,10.08,0,6.264,3.384,10.08,8.928,10.08a8.028,8.028,0,0,0,7.308-3.888,15.921,15.921,0,0,0-.108,1.764Zm-6.984-17.46a6.945,6.945,0,0,1,4.9,1.908A7.962,7.962,0,0,1,167-10.044c0,4.752-2.7,7.812-6.912,7.812a5.949,5.949,0,0,1-4.824-2.16,9.414,9.414,0,0,1-1.476-5.616c0-4.792,2.38-7.668,6.3-7.668Zm29.88,17.46V-2.232a12.341,12.341,0,0,0-.108-1.44A6.507,6.507,0,0,0,191.556-1.8a8.072,8.072,0,0,0,5.58,1.944c5.616,0,9-3.816,9-10.152,0-6.264-3.312-10.008-8.856-10.008a8.189,8.189,0,0,0-7.416,3.96,19.907,19.907,0,0,0,.144-2.556v-4.86a27.538,27.538,0,0,1,.252-4.1h-3.168a29.746,29.746,0,0,1,.252,4.068V-4.356a28.38,28.38,0,0,1-.252,4.14Zm13.392-9.828c0,4.932-2.376,7.848-6.408,7.848-4.14,0-6.948-3.168-6.948-7.812,0-4.608,2.808-7.7,7.056-7.7,4,0,6.3,2.808,6.3,7.664ZM216.72-.792l-1.656,3.96a2.788,2.788,0,0,1-2.664,1.98,4.734,4.734,0,0,1-2.2-.612L209.448,7.2a13.866,13.866,0,0,0,2.952.4,4.9,4.9,0,0,0,5.076-3.348L225.54-15.4c.936-2.268,1.548-3.672,1.764-4.212h-3.348a17.013,17.013,0,0,1-1.188,3.816L218.124-3.7,212.9-15.8a19.94,19.94,0,0,1-1.224-3.816h-3.528c.36.648.36.648,1.98,4.212Zm49.5.576a35.787,35.787,0,0,1-1.908-4.14l-8.064-19.872a19.464,19.464,0,0,1-1.224-3.348h-3.636a20.5,20.5,0,0,1-1.152,3.348L242.172-4.356a22.98,22.98,0,0,1-1.944,4.14h3.744a20.128,20.128,0,0,1,1.116-3.672l1.872-4.644h12.564L261.4-3.888a25.845,25.845,0,0,1,1.116,3.672Zm-7.56-10.8H247.824l4.608-11.88c.072-.144.18-.54.4-1.116.072-.252.216-.648.4-1.188.684,1.98.684,2.016.792,2.3Zm11.124,6.624A25.319,25.319,0,0,1,269.5-.108c1.26-.072,2.232-.108,3.96-.108h6.084a12.06,12.06,0,0,0,8.748-3.2c2.484-2.412,3.852-6.156,3.852-10.656,0-8.6-4.572-13.5-12.6-13.5H273.46c-1.728,0-2.7-.036-3.96-.108a25.921,25.921,0,0,1,.288,4.1Zm2.808,1.656v-22.32h7.02c2.952,0,5.184.792,6.768,2.448,1.908,1.908,2.844,4.788,2.844,8.532,0,3.708-1.044,6.768-3.024,8.784a8.793,8.793,0,0,1-6.732,2.556Zm23.94-24.84v3.2h3.492v-3.2Zm.108,7.956a26.4,26.4,0,0,1,.252,4.068V-4.284a31.231,31.231,0,0,1-.252,4.068h3.24a28.347,28.347,0,0,1-.252-4.068V-15.552a25.78,25.78,0,0,1,.252-4.068Zm7.452,14.148a7.111,7.111,0,0,0,1.152,2.844C306.576-.792,309.1.18,312.372.18c4.932,0,7.992-2.232,7.992-5.832A4.752,4.752,0,0,0,318.636-9.4c-1.08-.828-2.232-1.26-5.724-2.052a13.424,13.424,0,0,1-4-1.224,2.212,2.212,0,0,1-1.224-1.98c0-1.908,1.872-3.24,4.5-3.24a4.921,4.921,0,0,1,3.744,1.368,3.276,3.276,0,0,1,.9,1.908l2.844-.468a5.811,5.811,0,0,0-1.908-3.276,8.293,8.293,0,0,0-5.652-1.728A7.887,7.887,0,0,0,306.5-18.22a4.815,4.815,0,0,0-1.548,3.492,4.425,4.425,0,0,0,1.944,3.78c1.224.828,2.448,1.26,5.328,1.872,2.664.54,3.384.756,4.248,1.3a2.43,2.43,0,0,1,1.116,2.232c0,2.124-1.98,3.456-5.112,3.456a6.094,6.094,0,0,1-4.176-1.26,4.038,4.038,0,0,1-1.26-2.628Zm20.34-22.1v3.2h3.492v-3.2Zm.108,7.956a26.4,26.4,0,0,1,.252,4.068V-4.284a31.231,31.231,0,0,1-.252,4.068h3.24a28.343,28.343,0,0,1-.252-4.068V-15.552a25.783,25.783,0,0,1,.252-4.068Zm8.424,23.544a9.858,9.858,0,0,0,8.172,3.6c3.276,0,5.976-.972,7.488-2.736,1.44-1.692,2.088-3.96,2.088-7.488V-15.588a27.489,27.489,0,0,1,.252-4.032h-2.88v2.052c0,.468.036.756.072,1.368a7.444,7.444,0,0,0-6.912-3.78c-5.58,0-9.108,3.888-9.108,10.008,0,6.012,3.456,9.792,8.892,9.792a8.358,8.358,0,0,0,5.58-1.872,6.535,6.535,0,0,0,1.548-1.98,19.963,19.963,0,0,1-.648,5.328c-.936,2.592-3.132,3.96-6.264,3.96a6.884,6.884,0,0,1-4.824-1.692,5.059,5.059,0,0,1-1.152-1.26Zm1.98-13.9c0-4.788,2.448-7.74,6.444-7.74,4.032,0,6.624,2.916,6.624,7.452,0,4.68-2.736,7.812-6.84,7.812-3.852,0-6.228-2.844-6.228-7.524ZM359.352-.216a29.03,29.03,0,0,1-.252-4.068v-6.948a7.71,7.71,0,0,1,1.656-3.564A6.271,6.271,0,0,1,365.9-17.64c2.844,0,4.392,1.728,4.392,4.968v8.388a29.031,29.031,0,0,1-.252,4.068h3.24a24.424,24.424,0,0,1-.252-4.032V-13.14a7.343,7.343,0,0,0-1.008-4.14,6.5,6.5,0,0,0-5.76-2.7,7.82,7.82,0,0,0-7.272,4.356,9.651,9.651,0,0,0,.108-1.548V-19.62h-2.988a24.317,24.317,0,0,1,.288,4.068V-4.284a22.966,22.966,0,0,1-.288,4.068Z" transform="translate(548 707)"/>
    </g>
  </g>
</svg>
