<svg xmlns="http://www.w3.org/2000/svg" width="620" height="642" viewBox="0 0 620 642">
  <path id="phone-dark" d="M764-508q-9-112-87.5-190.5T486-786v-28q62,4,116,29a328.011,328.011,0,0,1,95,66,328.011,328.011,0,0,1,66,95q25,54,29,116Zm-160,0a150.112,150.112,0,0,0-41-77.5A139.922,139.922,0,0,0,486-626v-28q57,8,97,48.5T632-508ZM745-172q-94,0-195.5-49.5T359-360q-88-89-137.5-190T172-745q0-18,12-30.5T214-788h80a44.42,44.42,0,0,1,29.5,10.5Q336-767,341-750l18,82q3,17-1,30a41.973,41.973,0,0,1-14,21l-85,77a679.02,679.02,0,0,0,56.5,86.5A869,869,0,0,0,380-379a687.279,687.279,0,0,0,78,67,824.973,824.973,0,0,0,93,59l83-85q10-11,21.5-14t26.5-1l68,14a48.575,48.575,0,0,1,27.5,17A46.375,46.375,0,0,1,788-292v78q0,18-12.5,30T745-172ZM246-566l80-72a18.532,18.532,0,0,0,6.5-11,24.35,24.35,0,0,0-.5-13l-18-82q-2-8-7-12t-13-4H214a13.568,13.568,0,0,0-10,4,13.568,13.568,0,0,0-4,10q0,41,12.5,87A638.686,638.686,0,0,0,246-566ZM578-240a338.839,338.839,0,0,0,88.5,30.5Q714-200,746-200a13.568,13.568,0,0,0,10-4,13.568,13.568,0,0,0,4-10v-78q0-8-4-13t-12-7l-68-14q-6-2-10.5-.5T656-320ZM246-566ZM578-240Z" transform="translate(-172 814)" fill="#5c5c5c"/>
</svg>
