<svg xmlns="http://www.w3.org/2000/svg" width="814.904" height="680.747" viewBox="0 0 814.904 680.747">
  <path id="local_shipping_24dp_FFFFFF_FILL0_wght400_GRAD0_opsz24" d="M225.205-119.253q-46.3,0-78.712-37.228t-32.411-90.412H40V-714.907q0-35.1,21.762-60.1t52.321-25H632.657v170.187H743.781L854.9-459.626v212.733H780.822q0,53.183-32.411,90.412T669.7-119.253q-46.3,0-78.712-37.228t-32.411-90.412H336.329q0,53.183-32.411,90.412T225.205-119.253Zm0-85.093q15.742,0,26.392-12.232t10.649-30.315q0-18.082-10.649-30.314T225.205-289.44q-15.742,0-26.392,12.232t-10.649,30.314q0,18.082,10.649,30.315T225.205-204.346ZM114.082-331.986h29.633a131.17,131.17,0,0,1,36.115-30.846q20.373-11.7,45.375-11.7t45.375,11.7A131.171,131.171,0,0,1,306.7-331.986H558.575v-382.92H114.082ZM669.7-204.346q15.742,0,26.392-12.232t10.649-30.315q0-18.082-10.649-30.314T669.7-289.44q-15.742,0-26.392,12.232t-10.649,30.314q0,18.082,10.649,30.315T669.7-204.346ZM632.657-417.08H790.082L706.74-544.72H632.657ZM336.329-523.447Z" transform="translate(-40 800)" fill="#fff"/>
</svg>
