<svg xmlns="http://www.w3.org/2000/svg" width="771.312" height="787.665" viewBox="0 0 771.312 787.665">
  <g id="sales" transform="translate(-2474.312 2219.985)">
    <path id="sales-2" data-name="sales" d="M225.085-288.644l214.39,58.61L623.017-287.1a35.235,35.235,0,0,0-11.182-11.953,28.675,28.675,0,0,0-16.581-5.013H439.475a280.473,280.473,0,0,1-33.161-1.542,122,122,0,0,1-25.449-6.169l-71.72-23.907,16.966-60.153,62.466,20.822a203.854,203.854,0,0,0,30.847,6.169q17.737,2.314,52.441,3.085a29.259,29.259,0,0,0-5.013-16.195q-5.013-7.712-11.953-10.025L274.441-458.305H225.085ZM40-180.678V-520H274.441a51.4,51.4,0,0,1,10.8,1.157,94.083,94.083,0,0,1,10.025,2.7l181.229,67.093q25.449,9.254,41.258,32.39a88.291,88.291,0,0,1,15.809,50.9h61.695q38.559,0,65.551,25.449T687.8-273.22v30.847l-246.78,77.119L225.085-225.407v44.729Zm61.695-61.695H163.39V-458.305H101.695Z" transform="translate(2434.312 -1267.066)" fill="#fff"/>
    <path id="tv_24dp_FFFFFF_FILL0_wght400_GRAD0_opsz24" d="M236.409-370.772v-52.136H132.136a50.2,50.2,0,0,1-36.821-15.315A50.2,50.2,0,0,1,80-475.045V-787.864a50.2,50.2,0,0,1,15.315-36.821A50.2,50.2,0,0,1,132.136-840H549.228a50.2,50.2,0,0,1,36.821,15.315,50.2,50.2,0,0,1,15.315,36.821v312.818a50.2,50.2,0,0,1-15.315,36.821,50.2,50.2,0,0,1-36.821,15.315H444.955v52.136ZM132.136-475.045H549.228V-787.864H132.136Zm0,0v0Z" transform="translate(2644.26 -1379.985)" fill="#fff"/>
  </g>
</svg>
