<svg xmlns="http://www.w3.org/2000/svg" width="774.9" height="636.673" viewBox="0 0 774.9 636.673">
  <path id="sales" d="M265.205-163.327q-46.3,0-78.712-34.818T154.082-282.7H80V-720.416q0-32.828,21.762-56.206T154.082-800H632.657v159.168H743.781L854.9-481.663V-282.7H780.822q0,49.74-32.411,84.558T669.7-163.327q-46.3,0-78.712-34.818T558.575-282.7H376.329q0,49.74-32.411,84.558T265.205-163.327Zm0-79.584a34.6,34.6,0,0,0,26.392-11.44q10.649-11.44,10.649-28.352T291.6-311.055a34.6,34.6,0,0,0-26.392-11.44,34.6,34.6,0,0,0-26.392,11.44q-10.649,11.44-10.649,28.352t10.649,28.352a34.6,34.6,0,0,0,26.389,11.44ZM154.082-362.287h29.633a129.269,129.269,0,0,1,36.115-28.849q20.373-10.943,45.375-10.943t45.375,10.943a129.271,129.271,0,0,1,36.12,28.849H558.575V-720.416H154.082ZM669.7-242.911a34.6,34.6,0,0,0,26.392-11.44q10.649-11.44,10.649-28.352T696.09-311.055A34.6,34.6,0,0,0,669.7-322.5a34.6,34.6,0,0,0-26.392,11.44q-10.649,11.44-10.649,28.352t10.649,28.352A34.6,34.6,0,0,0,669.7-242.911Zm-37.041-198.96H790.082L706.74-561.248H632.657Zm-246.33-99.481-40,0" transform="translate(-80 800)" fill="#fff"/>
</svg>
